<svg xmlns="http://www.w3.org/2000/svg" viewBox="0 0 32 32"><defs><linearGradient id="a" x1="50%" x2="50%" y1="0%" y2="100%"><stop offset="0%" stop-color="#D85E34"/><stop offset="100%" stop-color="#D84D1F"/></linearGradient><linearGradient id="b" x1="50%" x2="50%" y1="0%" y2="100%"><stop offset="0%" stop-color="#2B9EB1"/><stop offset="100%" stop-color="#1F9CB1"/></linearGradient></defs><g fill="none" fill-rule="evenodd"><path fill="url(#a)" d="M5.5 4.62c-.77.15-1.35.75-1.47 1.52-.12.73 2.5 4 4.16 5.6a31 31 0 004.35 3.28l.33.22c-.03.08-.06.15-.07.23a3.43 3.43 0 001.11 3.5l-.17.36c-.67 1.46-1.53 3.27-2 5.07-.58 2.21-1.1 6.38-.63 6.94.24.3.57.5.94.59.15.04.3.06.45.07.23 0 .45-.05.65-.13.7-.25 2.27-4.14 2.85-6.36.47-1.8.62-3.8.73-5.4l.03-.39a3.44 3.44 0 002.7-2.5l.05-.26.4-.03a30.4 30.4 0 005.38-.77c2.22-.59 6.1-2.18 6.35-2.87.15-.36.16-.76.05-1.13-.09-.37-.3-.7-.6-.93-.56-.48-4.72.08-6.93.67-1.8.48-3.6 1.35-5.06 2.03l-.36.16a3.42 3.42 0 00-3.83-.98l-.23-.31a30.67 30.67 0 00-3.44-4.23c-1.6-1.54-4.83-3.95-5.68-3.95H5.5"/><path fill="url(#b)" d="M15.76 3h.14c4.58.03 9.03 2.4 11.52 6.62-1.03.14-2.1.33-3 .54A10.62 10.62 0 0011.6 6.7a34.99 34.99 0 00-2.4-1.93A13.36 13.36 0 0115.76 3zm10.67 14.53c.9-.27 1.9-.64 2.85-1.03a13.45 13.45 0 01-13.1 13.41c.4-.94.79-1.97 1.08-2.9a10.66 10.66 0 009.17-9.48zM2.38 16.38c.01-2.27.6-4.57 1.83-6.68.6.79 1.3 1.6 1.95 2.3a10.66 10.66 0 003.7 13.27 34.5 34.5 0 00-.45 3c-.12-.06-.24-.12-.35-.2a13.44 13.44 0 01-6.68-11.56v-.13z"/></g></svg>